<svg version="1.1" xmlns="http://www.w3.org/2000/svg" xmlns:xlink="http://www.w3.org/1999/xlink" width="571.55078125"
     height="624">
    <defs/>
    <g>
        <g transform="translate(-102,-102) scale(1,1)">
            <path fill="#C0C0C0" stroke="none"
                  d="M 241 303 L 291.40087890625 303 Q 301.40087890625 303 301.40087890625 313 L 301.40087890625 332 Q 301.40087890625 342 291.40087890625 342 L 241 342 Q 231 342 231 332 L 231 313 Q 231 303 241 303 Z"
                  opacity="0.2"/>
        </g>
        <g transform="translate(-102,-102) scale(1,1)">
            <path fill="#ffffff" stroke="none"
                  d="M 234 296 L 284.40087890625 296 Q 294.40087890625 296 294.40087890625 306 L 294.40087890625 325 Q 294.40087890625 335 284.40087890625 335 L 234 335 Q 224 335 224 325 L 224 306 Q 224 296 234 296 Z"/>
        </g>
        <g transform="translate(-102,-102) scale(1,1)">
            <path fill="none" stroke="#000000"
                  d="M 234 296 L 284.40087890625 296 Q 294.40087890625 296 294.40087890625 306 L 294.40087890625 325 Q 294.40087890625 335 284.40087890625 335 L 234 335 Q 224 335 224 325 L 224 306 Q 224 296 234 296 Z"
                  stroke-miterlimit="10"/>
        </g>
        <g transform="translate(-102,-102) scale(1,1)">
            <g>
                <path fill="none" stroke="none"/>
                <text fill="#000000" stroke="none" font-family="Arial" font-size="13px" font-style="normal"
                      font-weight="bold" text-decoration="none" x="228.5" y="314">AddCircle
                </text>
            </g>
        </g>
        <g transform="translate(-102,-102) scale(1,1)">
            <path fill="#C0C0C0" stroke="none"
                  d="M 521 303 L 585.1181640625 303 Q 595.1181640625 303 595.1181640625 313 L 595.1181640625 332 Q 595.1181640625 342 585.1181640625 342 L 521 342 Q 511 342 511 332 L 511 313 Q 511 303 521 303 Z"
                  opacity="0.2"/>
        </g>
        <g transform="translate(-102,-102) scale(1,1)">
            <path fill="#ffffff" stroke="none"
                  d="M 514 296 L 578.1181640625 296 Q 588.1181640625 296 588.1181640625 306 L 588.1181640625 325 Q 588.1181640625 335 578.1181640625 335 L 514 335 Q 504 335 504 325 L 504 306 Q 504 296 514 296 Z"/>
        </g>
        <g transform="translate(-102,-102) scale(1,1)">
            <path fill="none" stroke="#000000"
                  d="M 514 296 L 578.1181640625 296 Q 588.1181640625 296 588.1181640625 306 L 588.1181640625 325 Q 588.1181640625 335 578.1181640625 335 L 514 335 Q 504 335 504 325 L 504 306 Q 504 296 514 296 Z"
                  stroke-miterlimit="10"/>
        </g>
        <g transform="translate(-102,-102) scale(1,1)">
            <g>
                <path fill="none" stroke="none"/>
                <text fill="#000000" stroke="none" font-family="Arial" font-size="13px" font-style="normal"
                      font-weight="bold" text-decoration="none" x="508.5" y="314">AddTriangle
                </text>
            </g>
        </g>
        <g transform="translate(-102,-102) scale(1,1)">
            <path fill="#C0C0C0" stroke="none"
                  d="M 241 519 L 299.341796875 519 Q 309.341796875 519 309.341796875 529 L 309.341796875 548 Q 309.341796875 558 299.341796875 558 L 241 558 Q 231 558 231 548 L 231 529 Q 231 519 241 519 Z"
                  opacity="0.2"/>
        </g>
        <g transform="translate(-102,-102) scale(1,1)">
            <path fill="#ffffff" stroke="none"
                  d="M 234 512 L 292.341796875 512 Q 302.341796875 512 302.341796875 522 L 302.341796875 541 Q 302.341796875 551 292.341796875 551 L 234 551 Q 224 551 224 541 L 224 522 Q 224 512 234 512 Z"/>
        </g>
        <g transform="translate(-102,-102) scale(1,1)">
            <path fill="none" stroke="#000000"
                  d="M 234 512 L 292.341796875 512 Q 302.341796875 512 302.341796875 522 L 302.341796875 541 Q 302.341796875 551 292.341796875 551 L 234 551 Q 224 551 224 541 L 224 522 Q 224 512 234 512 Z"
                  stroke-miterlimit="10"/>
        </g>
        <g transform="translate(-102,-102) scale(1,1)">
            <g>
                <path fill="none" stroke="none"/>
                <text fill="#000000" stroke="none" font-family="Arial" font-size="13px" font-style="normal"
                      font-weight="bold" text-decoration="none" x="228.5" y="530">AddSquare
                </text>
            </g>
        </g>
        <g transform="translate(-102,-102) scale(1,1)">
            <path fill="#C0C0C0" stroke="none"
                  d="M 521 519 L 582.24267578125 519 Q 592.24267578125 519 592.24267578125 529 L 592.24267578125 548 Q 592.24267578125 558 582.24267578125 558 L 521 558 Q 511 558 511 548 L 511 529 Q 511 519 521 519 Z"
                  opacity="0.2"/>
        </g>
        <g transform="translate(-102,-102) scale(1,1)">
            <path fill="#ffffff" stroke="none"
                  d="M 514 512 L 575.24267578125 512 Q 585.24267578125 512 585.24267578125 522 L 585.24267578125 541 Q 585.24267578125 551 575.24267578125 551 L 514 551 Q 504 551 504 541 L 504 522 Q 504 512 514 512 Z"/>
        </g>
        <g transform="translate(-102,-102) scale(1,1)">
            <path fill="none" stroke="#000000"
                  d="M 514 512 L 575.24267578125 512 Q 585.24267578125 512 585.24267578125 522 L 585.24267578125 541 Q 585.24267578125 551 575.24267578125 551 L 514 551 Q 504 551 504 541 L 504 522 Q 504 512 514 512 Z"
                  stroke-miterlimit="10"/>
        </g>
        <g transform="translate(-102,-102) scale(1,1)">
            <g>
                <path fill="none" stroke="none"/>
                <text fill="#000000" stroke="none" font-family="Arial" font-size="13px" font-style="normal"
                      font-weight="bold" text-decoration="none" x="508.5" y="530">SelectMode
                </text>
            </g>
        </g>
        <g transform="translate(-102,-102) scale(1,1)">
            <path fill="#C0C0C0" stroke="none"
                  d="M 529 647 L 585.1708984375 647 Q 595.1708984375 647 595.1708984375 657 L 595.1708984375 676 Q 595.1708984375 686 585.1708984375 686 L 529 686 Q 519 686 519 676 L 519 657 Q 519 647 529 647 Z"
                  opacity="0.2"/>
        </g>
        <g transform="translate(-102,-102) scale(1,1)">
            <path fill="#ffffff" stroke="none"
                  d="M 522 640 L 578.1708984375 640 Q 588.1708984375 640 588.1708984375 650 L 588.1708984375 669 Q 588.1708984375 679 578.1708984375 679 L 522 679 Q 512 679 512 669 L 512 650 Q 512 640 522 640 Z"/>
        </g>
        <g transform="translate(-102,-102) scale(1,1)">
            <path fill="none" stroke="#000000"
                  d="M 522 640 L 578.1708984375 640 Q 588.1708984375 640 588.1708984375 650 L 588.1708984375 669 Q 588.1708984375 679 578.1708984375 679 L 522 679 Q 512 679 512 669 L 512 650 Q 512 640 522 640 Z"
                  stroke-miterlimit="10"/>
        </g>
        <g transform="translate(-102,-102) scale(1,1)">
            <g>
                <path fill="none" stroke="none"/>
                <text fill="#000000" stroke="none" font-family="Arial" font-size="13px" font-style="normal"
                      font-weight="bold" text-decoration="none" x="516.5" y="658">MoveMode
                </text>
            </g>
        </g>
        <g transform="translate(-102,-102) scale(1,1)">
            <path fill="none" stroke="#000000" d="M 546 296 L 546 275 L 618 275 L 618 315 L 588 315"
                  stroke-miterlimit="10"/>
        </g>
        <g transform="translate(-102,-102) scale(1,1)">
            <path fill="none" stroke="#000000"
                  d="M 598.1626748576241 310.790482243984 L 588 315 L 598.1626748576241 319.209517756016"
                  stroke-miterlimit="10"/>
        </g>
        <g transform="translate(-102,-102) scale(1,1)">
            <g>
                <path fill="none" stroke="none"/>
                <text fill="#000000" stroke="none" font-family="Arial" font-size="13px" font-style="normal"
                      font-weight="normal" text-decoration="none" x="542.5" y="266">createTriangle
                </text>
            </g>
        </g>
        <g transform="translate(-102,-102) scale(1,1)">
            <path fill="none" stroke="#000000" d="M 259 296 L 259 275 L 184 275 L 184 315 L 224 315"
                  stroke-miterlimit="10"/>
        </g>
        <g transform="translate(-102,-102) scale(1,1)">
            <path fill="none" stroke="#000000"
                  d="M 213.83732514237585 319.209517756016 L 224 315 L 213.83732514237585 310.790482243984"
                  stroke-miterlimit="10"/>
        </g>
        <g transform="translate(-102,-102) scale(1,1)">
            <g>
                <path fill="none" stroke="none"/>
                <text fill="#000000" stroke="none" font-family="Arial" font-size="13px" font-style="normal"
                      font-weight="normal" text-decoration="none" x="167.34814453125" y="267">createCircle
                </text>
            </g>
        </g>
        <g transform="translate(-102,-102) scale(1,1)">
            <path fill="none" stroke="#000000" d="M 248 551 L 248 568 L 200 568 L 200 531 L 224 531"
                  stroke-miterlimit="10"/>
        </g>
        <g transform="translate(-102,-102) scale(1,1)">
            <path fill="none" stroke="#000000"
                  d="M 213.83732514237585 535.209517756016 L 224 531 L 213.83732514237585 526.790482243984"
                  stroke-miterlimit="10"/>
        </g>
        <g transform="translate(-102,-102) scale(1,1)">
            <g>
                <path fill="none" stroke="none"/>
                <text fill="#000000" stroke="none" font-family="Arial" font-size="13px" font-style="normal"
                      font-weight="normal" text-decoration="none" x="175.5" y="586">createSqure
                </text>
            </g>
        </g>
        <g transform="translate(-102,-102) scale(1,1)">
            <path fill="none" stroke="#000000" d="M 260 511 L 248 424 L 257 336" stroke-miterlimit="10"/>
        </g>
        <g transform="translate(-102,-102) scale(1,1)">
            <path fill="none" stroke="#000000"
                  d="M 260.1537027775064 346.5382237018934 L 257 336 L 251.77835517855198 345.68165406109125"
                  stroke-miterlimit="10"/>
        </g>
        <g transform="translate(-102,-102) scale(1,1)">
            <g>
                <path fill="none" stroke="none"/>
                <text fill="#000000" stroke="none" font-family="Arial" font-size="13px" font-style="normal"
                      font-weight="normal" text-decoration="none" x="183.84814453125" y="432">addCircle
                </text>
            </g>
        </g>
        <g transform="translate(-102,-102) scale(1,1)">
            <path fill="none" stroke="#000000" d="M 286 511 L 407 408 L 515 336" stroke-miterlimit="10"/>
        </g>
        <g transform="translate(-102,-102) scale(1,1)">
            <path fill="none" stroke="#000000"
                  d="M 508.87916371872967 345.1397682256108 L 515 336 L 504.20912306817837 338.13470724978384"
                  stroke-miterlimit="10"/>
        </g>
        <g transform="translate(-102,-102) scale(1,1)">
            <g>
                <path fill="none" stroke="none"/>
                <text fill="#000000" stroke="none" font-family="Arial" font-size="13px" font-style="normal"
                      font-weight="normal" text-decoration="none" x="278.5" y="491">addTriangle
                </text>
            </g>
        </g>
        <g transform="translate(-102,-102) scale(1,1)">
            <path fill="none" stroke="#000000" d="M 303 525 L 392 512 L 503 526" stroke-miterlimit="10"/>
        </g>
        <g transform="translate(-102,-102) scale(1,1)">
            <path fill="none" stroke="#000000"
                  d="M 492.3904493175209 528.9047262032603 L 503 526 L 493.44396317126103 520.5518663628923"
                  stroke-miterlimit="10"/>
        </g>
        <g transform="translate(-102,-102) scale(1,1)">
            <g>
                <path fill="none" stroke="none"/>
                <text fill="#000000" stroke="none" font-family="Arial" font-size="13px" font-style="normal"
                      font-weight="normal" text-decoration="none" x="357.5" y="507">selectMode
                </text>
            </g>
        </g>
        <g transform="translate(-102,-102) scale(1,1)">
            <path fill="none" stroke="#000000" d="M 279 336 L 368 432 L 508 511" stroke-miterlimit="10"/>
        </g>
        <g transform="translate(-102,-102) scale(1,1)">
            <path fill="none" stroke="#000000"
                  d="M 497.08048818980546 509.6717448185599 L 508 511 L 501.2179573977074 502.3395209058224"
                  stroke-miterlimit="10"/>
        </g>
        <g transform="translate(-102,-102) scale(1,1)">
            <g>
                <path fill="none" stroke="none"/>
                <text fill="#000000" stroke="none" font-family="Arial" font-size="13px" font-style="normal"
                      font-weight="normal" text-decoration="none" x="259.5" y="365">selectMode
                </text>
            </g>
        </g>
        <g transform="translate(-102,-102) scale(1,1)">
            <path fill="none" stroke="#000000" d="M 295 312 L 392 304 L 503 312" stroke-miterlimit="10"/>
        </g>
        <g transform="translate(-102,-102) scale(1,1)">
            <path fill="none" stroke="#000000"
                  d="M 492.56101340905576 315.4680771263174 L 503 312 L 493.1662209391309 307.07082264652485"
                  stroke-miterlimit="10"/>
        </g>
        <g transform="translate(-102,-102) scale(1,1)">
            <g>
                <path fill="none" stroke="none"/>
                <text fill="#000000" stroke="none" font-family="Arial" font-size="13px" font-style="normal"
                      font-weight="normal" text-decoration="none" x="358.5" y="294">addTriangle
                </text>
            </g>
        </g>
        <g transform="translate(-102,-102) scale(1,1)">
            <path fill="none" stroke="#000000" d="M 262 336 L 272 424 L 265 511" stroke-miterlimit="10"/>
        </g>
        <g transform="translate(-102,-102) scale(1,1)">
            <path fill="none" stroke="#000000"
                  d="M 261.61909468176447 500.53245591224345 L 265 511 L 270.01101032974776 501.2076675161042"
                  stroke-miterlimit="10"/>
        </g>
        <g transform="translate(-102,-102) scale(1,1)">
            <g>
                <path fill="none" stroke="none"/>
                <text fill="#000000" stroke="none" font-family="Arial" font-size="13px" font-style="normal"
                      font-weight="normal" text-decoration="none" x="278.5" y="417">addSquare
                </text>
            </g>
        </g>
        <g transform="translate(-102,-102) scale(1,1)">
            <path fill="none" stroke="#000000" d="M 503 321 L 393 336 L 295 321" stroke-miterlimit="10"/>
        </g>
        <g transform="translate(-102,-102) scale(1,1)">
            <path fill="none" stroke="#000000"
                  d="M 305.68257890972365 318.37654658178815 L 295 321 L 304.40878568977064 326.69866228548136"
                  stroke-miterlimit="10"/>
        </g>
        <g transform="translate(-102,-102) scale(1,1)">
            <g>
                <path fill="none" stroke="none"/>
                <text fill="#000000" stroke="none" font-family="Arial" font-size="13px" font-style="normal"
                      font-weight="normal" text-decoration="none" x="362.5" y="355">addCircle
                </text>
            </g>
        </g>
        <g transform="translate(-102,-102) scale(1,1)">
            <path fill="none" stroke="#000000" d="M 522 336 L 424 424 L 293 511" stroke-miterlimit="10"/>
        </g>
        <g transform="translate(-102,-102) scale(1,1)">
            <path fill="none" stroke="#000000"
                  d="M 299.1369462573914 501.87104109802823 L 293 511 L 303.7946250591364 508.8843275696213"
                  stroke-miterlimit="10"/>
        </g>
        <g transform="translate(-102,-102) scale(1,1)">
            <g>
                <path fill="none" stroke="none"/>
                <text fill="#000000" stroke="none" font-family="Arial" font-size="13px" font-style="normal"
                      font-weight="normal" text-decoration="none" x="495.5" y="363">addSquare
                </text>
            </g>
        </g>
        <g transform="translate(-102,-102) scale(1,1)">
            <path fill="none" stroke="#000000" d="M 520 511 L 384 400 L 290 336" stroke-miterlimit="10"/>
        </g>
        <g transform="translate(-102,-102) scale(1,1)">
            <path fill="none" stroke="#000000"
                  d="M 300.76953800175835 338.2398775030529 L 290 336 L 296.03138077985363 345.1990459227255"
                  stroke-miterlimit="10"/>
        </g>
        <g transform="translate(-102,-102) scale(1,1)">
            <g>
                <path fill="none" stroke="none"/>
                <text fill="#000000" stroke="none" font-family="Arial" font-size="13px" font-style="normal"
                      font-weight="normal" text-decoration="none" x="478.5" y="482">addCircle
                </text>
            </g>
        </g>
        <g transform="translate(-102,-102) scale(1,1)">
            <path fill="none" stroke="#000000" d="M 503 535 L 392 544 L 303 535" stroke-miterlimit="10"/>
        </g>
        <g transform="translate(-102,-102) scale(1,1)">
            <path fill="none" stroke="#000000"
                  d="M 313.53462996463804 531.8343134223127 L 303 535 L 312.68758673148056 540.2106298390926"
                  stroke-miterlimit="10"/>
        </g>
        <g transform="translate(-102,-102) scale(1,1)">
            <g>
                <path fill="none" stroke="none"/>
                <text fill="#000000" stroke="none" font-family="Arial" font-size="13px" font-style="normal"
                      font-weight="normal" text-decoration="none" x="358.5" y="563">addSquare
                </text>
            </g>
        </g>
        <g transform="translate(-102,-102) scale(1,1)">
            <path fill="none" stroke="#000000" d="M 541 336 L 520 417 L 540 511" stroke-miterlimit="10"/>
        </g>
        <g transform="translate(-102,-102) scale(1,1)">
            <path fill="none" stroke="#000000"
                  d="M 533.7677153985915 501.9358602919502 L 540 511 L 542.0024239492437 500.1837946428752"
                  stroke-miterlimit="10"/>
        </g>
        <g transform="translate(-102,-102) scale(1,1)">
            <g>
                <path fill="none" stroke="none"/>
                <text fill="#000000" stroke="none" font-family="Arial" font-size="13px" font-style="normal"
                      font-weight="normal" text-decoration="none" x="454.5" y="418">selectMode
                </text>
            </g>
        </g>
        <g transform="translate(-102,-102) scale(1,1)">
            <path fill="none" stroke="#000000" d="M 547 511 L 560 416 L 549 336" stroke-miterlimit="10"/>
        </g>
        <g transform="translate(-102,-102) scale(1,1)">
            <path fill="none" stroke="#000000"
                  d="M 554.5546228707685 345.4945334147358 L 549 336 L 546.2140625370923 346.6413604606163"
                  stroke-miterlimit="10"/>
        </g>
        <g transform="translate(-102,-102) scale(1,1)">
            <g>
                <path fill="none" stroke="none"/>
                <text fill="#000000" stroke="none" font-family="Arial" font-size="13px" font-style="normal"
                      font-weight="normal" text-decoration="none" x="565.5" y="410">addTriangle
                </text>
            </g>
        </g>
        <g transform="translate(-102,-102) scale(1,1)">
            <path fill="none" stroke="#000000" d="M 541 552 L 536 598 L 545 639" stroke-miterlimit="10"/>
        </g>
        <g transform="translate(-102,-102) scale(1,1)">
            <path fill="none" stroke="#000000"
                  d="M 538.7094257197416 629.9762161359798 L 545 639 L 546.932671031082 628.1711135066612"
                  stroke-miterlimit="10"/>
        </g>
        <g transform="translate(-102,-102) scale(1,1)">
            <g>
                <path fill="none" stroke="none"/>
                <text fill="#000000" stroke="none" font-family="Arial" font-size="13px" font-style="normal"
                      font-weight="normal" text-decoration="none" x="452.5" y="614">MoveMode
                </text>
            </g>
        </g>
        <g transform="translate(-102,-102) scale(1,1)">
            <path fill="none" stroke="#000000" d="M 553 639 L 560 600 L 549 552" stroke-miterlimit="10"/>
        </g>
        <g transform="translate(-102,-102) scale(1,1)">
            <path fill="none" stroke="#000000"
                  d="M 555.3732522499289 560.9655817300818 L 549 552 L 547.166946245514 562.8461935227601"
                  stroke-miterlimit="10"/>
        </g>
        <g transform="translate(-102,-102) scale(1,1)">
            <g>
                <path fill="none" stroke="none"/>
                <text fill="#000000" stroke="none" font-family="Arial" font-size="13px" font-style="normal"
                      font-weight="normal" text-decoration="none" x="578.5" y="598">SelectMode
                </text>
            </g>
        </g>
        <g transform="translate(-102,-102) scale(1,1)">
            <path fill="none" stroke="#000000" d="M 568 512 L 568 491 L 614 491 L 614 531 L 585 531"
                  stroke-miterlimit="10"/>
        </g>
        <g transform="translate(-102,-102) scale(1,1)">
            <path fill="none" stroke="#000000"
                  d="M 595.1626748576241 526.790482243984 L 585 531 L 595.1626748576241 535.209517756016"
                  stroke-miterlimit="10"/>
        </g>
        <g transform="translate(-102,-102) scale(1,1)">
            <g>
                <path fill="none" stroke="none"/>
                <text fill="#000000" stroke="none" font-family="Arial" font-size="13px" font-style="normal"
                      font-weight="normal" text-decoration="none" x="592.5" y="483">selectShape
                </text>
            </g>
        </g>
        <g transform="translate(-102,-102) scale(1,1)">
            <path fill="none" stroke="#000000" d="M 550 679 L 550 696 L 618 696 L 618 659 L 588 659"
                  stroke-miterlimit="10"/>
        </g>
        <g transform="translate(-102,-102) scale(1,1)">
            <path fill="none" stroke="#000000"
                  d="M 598.1626748576241 654.790482243984 L 588 659 L 598.1626748576241 663.209517756016"
                  stroke-miterlimit="10"/>
        </g>
        <g transform="translate(-102,-102) scale(1,1)">
            <g>
                <path fill="none" stroke="none"/>
                <text fill="#000000" stroke="none" font-family="Arial" font-size="13px" font-style="normal"
                      font-weight="normal" text-decoration="none" x="551.5" y="715">moveShapes
                </text>
            </g>
        </g>
        <g transform="translate(-102,-102) scale(1,1)">
            <rect fill="#ffffff" stroke="none" x="184" y="112" width="288" height="106"/>
        </g>
        <g transform="translate(-102,-102) scale(1,1)">
            <path fill="none" stroke="#000000" d="M 184 112 L 472 112 L 472 218 L 184 218 L 184 112 Z Z"
                  stroke-miterlimit="10"/>
        </g>
        <g transform="translate(-102,-102) scale(1,1)">
            <g>
                <path fill="none" stroke="none"/>
                <text fill="#000000" stroke="none" font-family="Arial" font-size="13px" font-style="normal"
                      font-weight="normal" text-decoration="none" x="189" y="127">Ici le patron state et utiliser pour
                    dispatcher les
                </text>
                <text fill="#000000" stroke="none" font-family="Arial" font-size="13px" font-style="normal"
                      font-weight="normal" text-decoration="none" x="189" y="140">evenement de la souris diférament en
                    fonction
                </text>
                <text fill="#000000" stroke="none" font-family="Arial" font-size="13px" font-style="normal"
                      font-weight="normal" text-decoration="none" x="189" y="153">de l'état du whiteboard
                </text>
            </g>
        </g>
        <g transform="translate(-102,-102) scale(1,1)">
            <g>
                <path fill="none" stroke="none"/>
            </g>
        </g>
        <g transform="translate(-102,-102) scale(1,1)">
            <g>
                <path fill="none" stroke="none"/>
                <text fill="#000000" stroke="none" font-family="Arial" font-size="13px" font-style="normal"
                      font-weight="normal" text-decoration="none" x="189" y="170">Cela fait qu'il y à bien plus de
                    possiblité de
                </text>
                <text fill="#000000" stroke="none" font-family="Arial" font-size="13px" font-style="normal"
                      font-weight="normal" text-decoration="none" x="189" y="183">changement de state que dans celui des
                </text>
                <text fill="#000000" stroke="none" font-family="Arial" font-size="13px" font-style="normal"
                      font-weight="normal" text-decoration="none" x="189" y="196">shapes mais cela à de l'interet pour
                    allez
                </text>
                <text fill="#000000" stroke="none" font-family="Arial" font-size="13px" font-style="normal"
                      font-weight="normal" text-decoration="none" x="189" y="209">modifier le state des shapes
                </text>
            </g>
        </g>
        <g transform="translate(-102,-102) scale(1,1)">
            <path fill="#ffffff" stroke="none" d="M 112 648 L 357 648 L 367 658 L 367 710 L 112 710 L 112 648"/>
        </g>
        <g transform="translate(-102,-102) scale(1,1)">
            <path fill="none" stroke="#000000" d="M 112 648 L 357 648 L 367 658 L 367 710 L 112 710 L 112 648 L 112 648"
                  stroke-miterlimit="10"/>
        </g>
        <g transform="translate(-102,-102) scale(1,1)">
            <path fill="none" stroke="#000000" d="M 357 648 L 357 658 L 367 658 L 357 648" stroke-miterlimit="10"/>
        </g>
        <g transform="translate(-102,-102) scale(1,1)">
            <g>
                <path fill="none" stroke="none"/>
                <text fill="#000000" stroke="none" font-family="Arial" font-size="13px" font-style="normal"
                      font-weight="normal" text-decoration="none" x="117" y="663">Tous les state ici présent vont
                    executer
                </text>
                <text fill="#000000" stroke="none" font-family="Arial" font-size="13px" font-style="normal"
                      font-weight="normal" text-decoration="none" x="117" y="676">des commandes (sur les evenement de la
                </text>
                <text fill="#000000" stroke="none" font-family="Arial" font-size="13px" font-style="normal"
                      font-weight="normal" text-decoration="none" x="117" y="689">souris) qui vont elle même directement
                </text>
                <text fill="#000000" stroke="none" font-family="Arial" font-size="13px" font-style="normal"
                      font-weight="normal" text-decoration="none" x="117" y="702">editer les states des shapes
                </text>
            </g>
        </g>
    </g>
</svg>