<svg version="1.1" xmlns="http://www.w3.org/2000/svg" xmlns:xlink="http://www.w3.org/1999/xlink" width="864.58154296875"
     height="774">
    <defs/>
    <g>
        <g transform="translate(-118,-62) scale(1,1)">
            <rect fill="#C0C0C0" stroke="none" x="791" y="303" width="188.58154296875" height="164" opacity="0.2"/>
        </g>
        <g transform="translate(-118,-62) scale(1,1)">
            <rect fill="#ffffff" stroke="none" x="784" y="296" width="188.58154296875" height="164"/>
        </g>
        <g transform="translate(-118,-62) scale(1,1)">
            <path fill="none" stroke="#000000"
                  d="M 784 296 L 972.58154296875 296 L 972.58154296875 460 L 784 460 L 784 296 Z Z"
                  stroke-miterlimit="10"/>
        </g>
        <g transform="translate(-118,-62) scale(1,1)">
            <path fill="none" stroke="#000000" d="M 784 321 L 972.58154296875 321" stroke-miterlimit="10"/>
        </g>
        <g transform="translate(-118,-62) scale(1,1)">
            <path fill="none" stroke="#000000" d="M 784 331 L 972.58154296875 331" stroke-miterlimit="10"/>
        </g>
        <g transform="translate(-118,-62) scale(1,1)">
            <g>
                <path fill="none" stroke="none"/>
                <text fill="#000000" stroke="none" font-family="Arial" font-size="13px" font-style="italic"
                      font-weight="bold" text-decoration="none" x="832.416259765625" y="314">AbstractShape
                </text>
            </g>
        </g>
        <g transform="translate(-118,-62) scale(1,1)">
            <g>
                <path fill="none" stroke="none"/>
                <text fill="#000000" stroke="none" font-family="Arial" font-size="13px" font-style="normal"
                      font-weight="normal" text-decoration="none" x="789" y="349">+move(x: int, y: int)
                </text>
            </g>
        </g>
        <g transform="translate(-118,-62) scale(1,1)">
            <g>
                <path fill="none" stroke="none"/>
                <text fill="#000000" stroke="none" font-family="Arial" font-size="13px" font-style="normal"
                      font-weight="normal" text-decoration="none" x="789" y="364">+editElevation(elevation: int)
                </text>
            </g>
        </g>
        <g transform="translate(-118,-62) scale(1,1)">
            <g>
                <path fill="none" stroke="none"/>
                <text fill="#000000" stroke="none" font-family="Arial" font-size="13px" font-style="normal"
                      font-weight="normal" text-decoration="none" x="789" y="379">+select()
                </text>
            </g>
        </g>
        <g transform="translate(-118,-62) scale(1,1)">
            <g>
                <path fill="none" stroke="none"/>
                <text fill="#000000" stroke="none" font-family="Arial" font-size="13px" font-style="normal"
                      font-weight="normal" text-decoration="none" x="789" y="394">+unselect()
                </text>
            </g>
        </g>
        <g transform="translate(-118,-62) scale(1,1)">
            <g>
                <path fill="none" stroke="none"/>
                <text fill="#000000" stroke="none" font-family="Arial" font-size="13px" font-style="normal"
                      font-weight="normal" text-decoration="none" x="789" y="409">+group()
                </text>
            </g>
        </g>
        <g transform="translate(-118,-62) scale(1,1)">
            <g>
                <path fill="none" stroke="none"/>
                <text fill="#000000" stroke="none" font-family="Arial" font-size="13px" font-style="normal"
                      font-weight="normal" text-decoration="none" x="789" y="424">+ungroup()
                </text>
            </g>
        </g>
        <g transform="translate(-118,-62) scale(1,1)">
            <g>
                <path fill="none" stroke="none"/>
                <text fill="#000000" stroke="none" font-family="Arial" font-size="13px" font-style="normal"
                      font-weight="normal" text-decoration="none" x="789" y="439">+getState(): SimpleShapeState
                </text>
            </g>
        </g>
        <g transform="translate(-118,-62) scale(1,1)">
            <g>
                <path fill="none" stroke="none"/>
                <text fill="#000000" stroke="none" font-family="Arial" font-size="13px" font-style="normal"
                      font-weight="normal" text-decoration="none" x="789" y="454">+isInside(x: int, y: int): boolean
                </text>
            </g>
        </g>
        <g transform="translate(-118,-62) scale(1,1)">
            <rect fill="#C0C0C0" stroke="none" x="615" y="87" width="172.6806640625" height="135" opacity="0.2"/>
        </g>
        <g transform="translate(-118,-62) scale(1,1)">
            <rect fill="#ffffff" stroke="none" x="608" y="80" width="172.6806640625" height="135"/>
        </g>
        <g transform="translate(-118,-62) scale(1,1)">
            <path fill="none" stroke="#000000"
                  d="M 608 80 L 780.6806640625 80 L 780.6806640625 215 L 608 215 L 608 80 Z Z" stroke-miterlimit="10"/>
        </g>
        <g transform="translate(-118,-62) scale(1,1)">
            <path fill="none" stroke="#000000" d="M 608 118 L 780.6806640625 118" stroke-miterlimit="10"/>
        </g>
        <g transform="translate(-118,-62) scale(1,1)">
            <g>
                <path fill="none" stroke="none"/>
                <text fill="#000000" stroke="none" font-family="Arial" font-size="13px" font-style="normal"
                      font-weight="normal" text-decoration="none" x="662.179931640625" y="96">«interface»
                </text>
            </g>
        </g>
        <g transform="translate(-118,-62) scale(1,1)">
            <g>
                <path fill="none" stroke="none"/>
                <text fill="#000000" stroke="none" font-family="Arial" font-size="13px" font-style="normal"
                      font-weight="bold" text-decoration="none" x="637.627197265625" y="111">SimpleShapeState
                </text>
            </g>
        </g>
        <g transform="translate(-118,-62) scale(1,1)">
            <g>
                <path fill="none" stroke="none"/>
                <text fill="#000000" stroke="none" font-family="Arial" font-size="13px" font-style="normal"
                      font-weight="normal" text-decoration="none" x="613" y="134">+move(x: int, y: int)
                </text>
            </g>
        </g>
        <g transform="translate(-118,-62) scale(1,1)">
            <g>
                <path fill="none" stroke="none"/>
                <text fill="#000000" stroke="none" font-family="Arial" font-size="13px" font-style="normal"
                      font-weight="normal" text-decoration="none" x="613" y="149">+editElevation(elevation: int)
                </text>
            </g>
        </g>
        <g transform="translate(-118,-62) scale(1,1)">
            <g>
                <path fill="none" stroke="none"/>
                <text fill="#000000" stroke="none" font-family="Arial" font-size="13px" font-style="normal"
                      font-weight="normal" text-decoration="none" x="613" y="164">+select()
                </text>
            </g>
        </g>
        <g transform="translate(-118,-62) scale(1,1)">
            <g>
                <path fill="none" stroke="none"/>
                <text fill="#000000" stroke="none" font-family="Arial" font-size="13px" font-style="normal"
                      font-weight="normal" text-decoration="none" x="613" y="179">+unselect()
                </text>
            </g>
        </g>
        <g transform="translate(-118,-62) scale(1,1)">
            <g>
                <path fill="none" stroke="none"/>
                <text fill="#000000" stroke="none" font-family="Arial" font-size="13px" font-style="normal"
                      font-weight="normal" text-decoration="none" x="613" y="194">+group()
                </text>
            </g>
        </g>
        <g transform="translate(-118,-62) scale(1,1)">
            <g>
                <path fill="none" stroke="none"/>
                <text fill="#000000" stroke="none" font-family="Arial" font-size="13px" font-style="normal"
                      font-weight="normal" text-decoration="none" x="613" y="209">+ungroup()
                </text>
            </g>
        </g>
        <g transform="translate(-118,-62) scale(1,1)">
            <path fill="none" stroke="#000000" d="M 812 295 L 749 216" stroke-miterlimit="10" stroke-dasharray="3"/>
        </g>
        <g transform="translate(-118,-62) scale(1,1)">
            <path fill="#FFFFFF" stroke="none"
                  d="M 768.2548825331078 226.64187477074518 L 749 216 L 755.090316195179 237.14019982504283"/>
        </g>
        <g transform="translate(-118,-62) scale(1,1)">
            <path fill="none" stroke="#000000"
                  d="M 768.2548825331078 226.64187477074518 L 749 216 L 755.090316195179 237.14019982504283 L 768.2548825331078 226.64187477074518"
                  stroke-miterlimit="10"/>
        </g>
        <g transform="translate(-118,-62) scale(1,1)">
            <path fill="none" stroke="#000000" d="M 879 295 L 880 144 L 782 146" stroke-miterlimit="10"/>
        </g>
        <g transform="translate(-118,-62) scale(1,1)">
            <path fill="none" stroke="#000000"
                  d="M 792.0746685352926 141.5840002373207 L 782 146 L 792.2464498174209 150.0012830616035"
                  stroke-miterlimit="10"/>
        </g>
        <g transform="translate(-118,-62) scale(1,1)">
            <g>
                <path fill="none" stroke="none"/>
                <text fill="#000000" stroke="none" font-family="Arial" font-size="13px" font-style="normal"
                      font-weight="normal" text-decoration="none" x="889.13134765625" y="185.5">-state
                </text>
            </g>
        </g>
        <g transform="translate(-118,-62) scale(1,1)">
            <g>
                <path fill="none" stroke="none"/>
                <text fill="#000000" stroke="none" font-family="Arial" font-size="13px" font-style="normal"
                      font-weight="normal" text-decoration="none" x="880.5" y="278">0..1
                </text>
            </g>
        </g>
        <g transform="translate(-118,-62) scale(1,1)">
            <g>
                <path fill="none" stroke="none"/>
                <text fill="#000000" stroke="none" font-family="Arial" font-size="13px" font-style="normal"
                      font-weight="normal" text-decoration="none" x="799.726806640625" y="138">1
                </text>
            </g>
        </g>
        <g transform="translate(-118,-62) scale(1,1)">
            <rect fill="#C0C0C0" stroke="none" x="383" y="351" width="263.71875" height="57" opacity="0.2"/>
        </g>
        <g transform="translate(-118,-62) scale(1,1)">
            <rect fill="#ffffff" stroke="none" x="376" y="344" width="263.71875" height="57"/>
        </g>
        <g transform="translate(-118,-62) scale(1,1)">
            <path fill="none" stroke="#000000" d="M 376 344 L 639.71875 344 L 639.71875 401 L 376 401 L 376 344 Z Z"
                  stroke-miterlimit="10"/>
        </g>
        <g transform="translate(-118,-62) scale(1,1)">
            <path fill="none" stroke="#000000" d="M 376 369 L 639.71875 369" stroke-miterlimit="10"/>
        </g>
        <g transform="translate(-118,-62) scale(1,1)">
            <path fill="none" stroke="#000000" d="M 376 379 L 639.71875 379" stroke-miterlimit="10"/>
        </g>
        <g transform="translate(-118,-62) scale(1,1)">
            <g>
                <path fill="none" stroke="none"/>
                <text fill="#000000" stroke="none" font-family="Arial" font-size="13px" font-style="italic"
                      font-weight="bold" text-decoration="none" x="437.784423828125" y="362">SimpleShapeStateImpl
                </text>
            </g>
        </g>
        <g transform="translate(-118,-62) scale(1,1)">
            <g>
                <path fill="none" stroke="none"/>
                <text fill="#000000" stroke="none" font-family="Arial" font-size="13px" font-style="normal"
                      font-weight="normal" text-decoration="none" x="381" y="395">#SimpleShapeStateImpl(as:
                    AbstractShape)
                </text>
            </g>
        </g>
        <g transform="translate(-118,-62) scale(1,1)">
            <path fill="none" stroke="#000000" d="M 531 343 L 637 216" stroke-miterlimit="10" stroke-dasharray="3"/>
        </g>
        <g transform="translate(-118,-62) scale(1,1)">
            <path fill="#FFFFFF" stroke="none"
                  d="M 630.4394553493054 236.99902983202418 L 637 216 L 617.5124379966537 226.20955078177957"/>
        </g>
        <g transform="translate(-118,-62) scale(1,1)">
            <path fill="none" stroke="#000000"
                  d="M 630.4394553493054 236.99902983202418 L 637 216 L 617.5124379966537 226.20955078177957 L 630.4394553493054 236.99902983202418"
                  stroke-miterlimit="10"/>
        </g>
        <g transform="translate(-118,-62) scale(1,1)">
            <path fill="none" stroke="#000000" d="M 641 374 L 783 376" stroke-miterlimit="10"/>
        </g>
        <g transform="translate(-118,-62) scale(1,1)">
            <path fill="none" stroke="#000000"
                  d="M 772.7790498916233 380.0659782195771 L 783 376 L 772.8976160969777 371.64777763941726"
                  stroke-miterlimit="10"/>
        </g>
        <g transform="translate(-118,-62) scale(1,1)">
            <g>
                <path fill="none" stroke="none"/>
                <text fill="#000000" stroke="none" font-family="Arial" font-size="13px" font-style="normal"
                      font-weight="normal" text-decoration="none" x="690.680908203125" y="365">#shape
                </text>
            </g>
        </g>
        <g transform="translate(-118,-62) scale(1,1)">
            <g>
                <path fill="none" stroke="none"/>
                <text fill="#000000" stroke="none" font-family="Arial" font-size="13px" font-style="normal"
                      font-weight="normal" text-decoration="none" x="652.5" y="391">1..*
                </text>
            </g>
        </g>
        <g transform="translate(-118,-62) scale(1,1)">
            <g>
                <path fill="none" stroke="none"/>
                <text fill="#000000" stroke="none" font-family="Arial" font-size="13px" font-style="normal"
                      font-weight="normal" text-decoration="none" x="757.5" y="393">1
                </text>
            </g>
        </g>
        <g transform="translate(-118,-62) scale(1,1)">
            <rect fill="#C0C0C0" stroke="none" x="551" y="503" width="226.87060546875" height="160" opacity="0.2"/>
        </g>
        <g transform="translate(-118,-62) scale(1,1)">
            <rect fill="#ffffff" stroke="none" x="544" y="496" width="226.87060546875" height="160"/>
        </g>
        <g transform="translate(-118,-62) scale(1,1)">
            <path fill="none" stroke="#000000"
                  d="M 544 496 L 770.87060546875 496 L 770.87060546875 656 L 544 656 L 544 496 Z Z"
                  stroke-miterlimit="10"/>
        </g>
        <g transform="translate(-118,-62) scale(1,1)">
            <path fill="none" stroke="#000000" d="M 544 534 L 770.87060546875 534" stroke-miterlimit="10"/>
        </g>
        <g transform="translate(-118,-62) scale(1,1)">
            <path fill="none" stroke="#000000" d="M 544 544 L 770.87060546875 544" stroke-miterlimit="10"/>
        </g>
        <g transform="translate(-118,-62) scale(1,1)">
            <g>
                <path fill="none" stroke="none"/>
                <text fill="#000000" stroke="none" font-family="Arial" font-size="13px" font-style="normal"
                      font-weight="normal" text-decoration="none" x="636.113525390625" y="511.5">«state»
                </text>
            </g>
        </g>
        <g transform="translate(-118,-62) scale(1,1)">
            <g>
                <path fill="none" stroke="none"/>
                <text fill="#000000" stroke="none" font-family="Arial" font-size="13px" font-style="normal"
                      font-weight="bold" text-decoration="none" x="606.8603515625" y="527">UnselectedState
                </text>
            </g>
        </g>
        <g transform="translate(-118,-62) scale(1,1)">
            <g>
                <path fill="none" stroke="none"/>
                <text fill="#000000" stroke="none" font-family="Arial" font-size="13px" font-style="normal"
                      font-weight="normal" text-decoration="none" x="549" y="560">+UnselectedState(as: AbstractShape)
                </text>
            </g>
        </g>
        <g transform="translate(-118,-62) scale(1,1)">
            <g>
                <path fill="none" stroke="none"/>
                <text fill="#000000" stroke="none" font-family="Arial" font-size="13px" font-style="normal"
                      font-weight="normal" text-decoration="none" x="549" y="575">+move(x: int, y: int)
                </text>
            </g>
        </g>
        <g transform="translate(-118,-62) scale(1,1)">
            <g>
                <path fill="none" stroke="none"/>
                <text fill="#000000" stroke="none" font-family="Arial" font-size="13px" font-style="normal"
                      font-weight="normal" text-decoration="none" x="549" y="590">+editElevation(elevation: int)
                </text>
            </g>
        </g>
        <g transform="translate(-118,-62) scale(1,1)">
            <g>
                <path fill="none" stroke="none"/>
                <text fill="#000000" stroke="none" font-family="Arial" font-size="13px" font-style="normal"
                      font-weight="normal" text-decoration="none" x="549" y="605">+select()
                </text>
            </g>
        </g>
        <g transform="translate(-118,-62) scale(1,1)">
            <g>
                <path fill="none" stroke="none"/>
                <text fill="#000000" stroke="none" font-family="Arial" font-size="13px" font-style="normal"
                      font-weight="normal" text-decoration="none" x="549" y="620">+unselect()
                </text>
            </g>
        </g>
        <g transform="translate(-118,-62) scale(1,1)">
            <g>
                <path fill="none" stroke="none"/>
                <text fill="#000000" stroke="none" font-family="Arial" font-size="13px" font-style="normal"
                      font-weight="normal" text-decoration="none" x="549" y="635">+group()
                </text>
            </g>
        </g>
        <g transform="translate(-118,-62) scale(1,1)">
            <g>
                <path fill="none" stroke="none"/>
                <text fill="#000000" stroke="none" font-family="Arial" font-size="13px" font-style="normal"
                      font-weight="normal" text-decoration="none" x="549" y="650">+ungroup()
                </text>
            </g>
        </g>
        <g transform="translate(-118,-62) scale(1,1)">
            <path fill="none" stroke="#000000" d="M 592 496 L 592 401" stroke-miterlimit="10"/>
        </g>
        <g transform="translate(-118,-62) scale(1,1)">
            <path fill="#FFFFFF" stroke="none"
                  d="M 600.419035512032 421.3253497152483 L 592 401 L 583.580964487968 421.3253497152483"/>
        </g>
        <g transform="translate(-118,-62) scale(1,1)">
            <path fill="none" stroke="#000000"
                  d="M 600.419035512032 421.3253497152483 L 592 401 L 583.580964487968 421.3253497152483 L 600.419035512032 421.3253497152483"
                  stroke-miterlimit="10"/>
        </g>
        <g transform="translate(-118,-62) scale(1,1)">
            <rect fill="#C0C0C0" stroke="none" x="239" y="503" width="281.796875" height="87" opacity="0.2"/>
        </g>
        <g transform="translate(-118,-62) scale(1,1)">
            <rect fill="#ffffff" stroke="none" x="232" y="496" width="281.796875" height="87"/>
        </g>
        <g transform="translate(-118,-62) scale(1,1)">
            <path fill="none" stroke="#000000" d="M 232 496 L 513.796875 496 L 513.796875 583 L 232 583 L 232 496 Z Z"
                  stroke-miterlimit="10"/>
        </g>
        <g transform="translate(-118,-62) scale(1,1)">
            <path fill="none" stroke="#000000" d="M 232 521 L 513.796875 521" stroke-miterlimit="10"/>
        </g>
        <g transform="translate(-118,-62) scale(1,1)">
            <path fill="none" stroke="#000000" d="M 232 531 L 513.796875 531" stroke-miterlimit="10"/>
        </g>
        <g transform="translate(-118,-62) scale(1,1)">
            <g>
                <path fill="none" stroke="none"/>
                <text fill="#000000" stroke="none" font-family="Arial" font-size="13px" font-style="italic"
                      font-weight="bold" text-decoration="none" x="303.8994140625" y="514">AbstractSelectedState
                </text>
            </g>
        </g>
        <g transform="translate(-118,-62) scale(1,1)">
            <g>
                <path fill="none" stroke="none"/>
                <text fill="#000000" stroke="none" font-family="Arial" font-size="13px" font-style="normal"
                      font-weight="normal" text-decoration="none" x="237" y="547">#AbstractSelectedState(as:
                    AbstractShape)
                </text>
            </g>
        </g>
        <g transform="translate(-118,-62) scale(1,1)">
            <g>
                <path fill="none" stroke="none"/>
                <text fill="#000000" stroke="none" font-family="Arial" font-size="13px" font-style="normal"
                      font-weight="normal" text-decoration="none" x="237" y="562">+move(x: int, y: int)
                </text>
            </g>
        </g>
        <g transform="translate(-118,-62) scale(1,1)">
            <g>
                <path fill="none" stroke="none"/>
                <text fill="#000000" stroke="none" font-family="Arial" font-size="13px" font-style="normal"
                      font-weight="normal" text-decoration="none" x="237" y="577">+editElevation(elevation: int)
                </text>
            </g>
        </g>
        <g transform="translate(-118,-62) scale(1,1)">
            <path fill="none" stroke="#000000" d="M 432 496 L 432 401" stroke-miterlimit="10"/>
        </g>
        <g transform="translate(-118,-62) scale(1,1)">
            <path fill="#FFFFFF" stroke="none"
                  d="M 440.419035512032 421.3253497152483 L 432 401 L 423.580964487968 421.3253497152483"/>
        </g>
        <g transform="translate(-118,-62) scale(1,1)">
            <path fill="none" stroke="#000000"
                  d="M 440.419035512032 421.3253497152483 L 432 401 L 423.580964487968 421.3253497152483 L 440.419035512032 421.3253497152483"
                  stroke-miterlimit="10"/>
        </g>
        <g transform="translate(-118,-62) scale(1,1)">
            <rect fill="#C0C0C0" stroke="none" x="135" y="703" width="212.42333984375" height="130" opacity="0.2"/>
        </g>
        <g transform="translate(-118,-62) scale(1,1)">
            <rect fill="#ffffff" stroke="none" x="128" y="696" width="212.42333984375" height="130"/>
        </g>
        <g transform="translate(-118,-62) scale(1,1)">
            <path fill="none" stroke="#000000"
                  d="M 128 696 L 340.42333984375 696 L 340.42333984375 826 L 128 826 L 128 696 Z Z"
                  stroke-miterlimit="10"/>
        </g>
        <g transform="translate(-118,-62) scale(1,1)">
            <path fill="none" stroke="#000000" d="M 128 734 L 340.42333984375 734" stroke-miterlimit="10"/>
        </g>
        <g transform="translate(-118,-62) scale(1,1)">
            <path fill="none" stroke="#000000" d="M 128 744 L 340.42333984375 744" stroke-miterlimit="10"/>
        </g>
        <g transform="translate(-118,-62) scale(1,1)">
            <g>
                <path fill="none" stroke="none"/>
                <text fill="#000000" stroke="none" font-family="Arial" font-size="13px" font-style="normal"
                      font-weight="normal" text-decoration="none" x="212.889892578125" y="711.5">«state»
                </text>
            </g>
        </g>
        <g transform="translate(-118,-62) scale(1,1)">
            <g>
                <path fill="none" stroke="none"/>
                <text fill="#000000" stroke="none" font-family="Arial" font-size="13px" font-style="normal"
                      font-weight="bold" text-decoration="none" x="191.580810546875" y="727">SelectedState
                </text>
            </g>
        </g>
        <g transform="translate(-118,-62) scale(1,1)">
            <g>
                <path fill="none" stroke="none"/>
                <text fill="#000000" stroke="none" font-family="Arial" font-size="13px" font-style="normal"
                      font-weight="normal" text-decoration="none" x="133" y="760">+SelectedState(as: AbstractShape)
                </text>
            </g>
        </g>
        <g transform="translate(-118,-62) scale(1,1)">
            <g>
                <path fill="none" stroke="none"/>
                <text fill="#000000" stroke="none" font-family="Arial" font-size="13px" font-style="normal"
                      font-weight="normal" text-decoration="none" x="133" y="775">+select()
                </text>
            </g>
        </g>
        <g transform="translate(-118,-62) scale(1,1)">
            <g>
                <path fill="none" stroke="none"/>
                <text fill="#000000" stroke="none" font-family="Arial" font-size="13px" font-style="normal"
                      font-weight="normal" text-decoration="none" x="133" y="790">+unselect()
                </text>
            </g>
        </g>
        <g transform="translate(-118,-62) scale(1,1)">
            <g>
                <path fill="none" stroke="none"/>
                <text fill="#000000" stroke="none" font-family="Arial" font-size="13px" font-style="normal"
                      font-weight="normal" text-decoration="none" x="133" y="805">+group()
                </text>
            </g>
        </g>
        <g transform="translate(-118,-62) scale(1,1)">
            <g>
                <path fill="none" stroke="none"/>
                <text fill="#000000" stroke="none" font-family="Arial" font-size="13px" font-style="normal"
                      font-weight="normal" text-decoration="none" x="133" y="820">+ungroup()
                </text>
            </g>
        </g>
        <g transform="translate(-118,-62) scale(1,1)">
            <rect fill="#C0C0C0" stroke="none" x="399" y="703" width="205.193359375" height="130" opacity="0.2"/>
        </g>
        <g transform="translate(-118,-62) scale(1,1)">
            <rect fill="#ffffff" stroke="none" x="392" y="696" width="205.193359375" height="130"/>
        </g>
        <g transform="translate(-118,-62) scale(1,1)">
            <path fill="none" stroke="#000000"
                  d="M 392 696 L 597.193359375 696 L 597.193359375 826 L 392 826 L 392 696 Z Z" stroke-miterlimit="10"/>
        </g>
        <g transform="translate(-118,-62) scale(1,1)">
            <path fill="none" stroke="#000000" d="M 392 734 L 597.193359375 734" stroke-miterlimit="10"/>
        </g>
        <g transform="translate(-118,-62) scale(1,1)">
            <path fill="none" stroke="#000000" d="M 392 744 L 597.193359375 744" stroke-miterlimit="10"/>
        </g>
        <g transform="translate(-118,-62) scale(1,1)">
            <g>
                <path fill="none" stroke="none"/>
                <text fill="#000000" stroke="none" font-family="Arial" font-size="13px" font-style="normal"
                      font-weight="normal" text-decoration="none" x="473.27490234375" y="711.5">«state»
                </text>
            </g>
        </g>
        <g transform="translate(-118,-62) scale(1,1)">
            <g>
                <path fill="none" stroke="none"/>
                <text fill="#000000" stroke="none" font-family="Arial" font-size="13px" font-style="normal"
                      font-weight="bold" text-decoration="none" x="455.59033203125" y="727">GroupeState
                </text>
            </g>
        </g>
        <g transform="translate(-118,-62) scale(1,1)">
            <g>
                <path fill="none" stroke="none"/>
                <text fill="#000000" stroke="none" font-family="Arial" font-size="13px" font-style="normal"
                      font-weight="normal" text-decoration="none" x="397" y="760">+GroupeState(as: AbstractShape)
                </text>
            </g>
        </g>
        <g transform="translate(-118,-62) scale(1,1)">
            <g>
                <path fill="none" stroke="none"/>
                <text fill="#000000" stroke="none" font-family="Arial" font-size="13px" font-style="normal"
                      font-weight="normal" text-decoration="none" x="397" y="775">+select()
                </text>
            </g>
        </g>
        <g transform="translate(-118,-62) scale(1,1)">
            <g>
                <path fill="none" stroke="none"/>
                <text fill="#000000" stroke="none" font-family="Arial" font-size="13px" font-style="normal"
                      font-weight="normal" text-decoration="none" x="397" y="790">+unselect()
                </text>
            </g>
        </g>
        <g transform="translate(-118,-62) scale(1,1)">
            <g>
                <path fill="none" stroke="none"/>
                <text fill="#000000" stroke="none" font-family="Arial" font-size="13px" font-style="normal"
                      font-weight="normal" text-decoration="none" x="397" y="805">+group()
                </text>
            </g>
        </g>
        <g transform="translate(-118,-62) scale(1,1)">
            <g>
                <path fill="none" stroke="none"/>
                <text fill="#000000" stroke="none" font-family="Arial" font-size="13px" font-style="normal"
                      font-weight="normal" text-decoration="none" x="397" y="820">+ungroup()
                </text>
            </g>
        </g>
        <g transform="translate(-118,-62) scale(1,1)">
            <path fill="none" stroke="#000000" d="M 296 696 L 296 583" stroke-miterlimit="10"/>
        </g>
        <g transform="translate(-118,-62) scale(1,1)">
            <path fill="#FFFFFF" stroke="none"
                  d="M 304.419035512032 603.3253497152483 L 296 583 L 287.580964487968 603.3253497152483"/>
        </g>
        <g transform="translate(-118,-62) scale(1,1)">
            <path fill="none" stroke="#000000"
                  d="M 304.419035512032 603.3253497152483 L 296 583 L 287.580964487968 603.3253497152483 L 304.419035512032 603.3253497152483"
                  stroke-miterlimit="10"/>
        </g>
        <g transform="translate(-118,-62) scale(1,1)">
            <path fill="none" stroke="#000000" d="M 440 696 L 440 583" stroke-miterlimit="10"/>
        </g>
        <g transform="translate(-118,-62) scale(1,1)">
            <path fill="#FFFFFF" stroke="none"
                  d="M 448.419035512032 603.3253497152483 L 440 583 L 431.580964487968 603.3253497152483"/>
        </g>
        <g transform="translate(-118,-62) scale(1,1)">
            <path fill="none" stroke="#000000"
                  d="M 448.419035512032 603.3253497152483 L 440 583 L 431.580964487968 603.3253497152483 L 448.419035512032 603.3253497152483"
                  stroke-miterlimit="10"/>
        </g>
        <g transform="translate(-118,-62) scale(1,1)">
            <rect fill="#ffffff" stroke="none" x="152" y="72" width="208" height="80"/>
        </g>
        <g transform="translate(-118,-62) scale(1,1)">
            <path fill="none" stroke="#000000" d="M 152 72 L 360 72 L 360 152 L 152 152 L 152 72 Z Z"
                  stroke-miterlimit="10"/>
        </g>
        <g transform="translate(-118,-62) scale(1,1)">
            <g>
                <path fill="none" stroke="none"/>
                <text fill="#000000" stroke="none" font-family="Arial" font-size="13px" font-style="normal"
                      font-weight="normal" text-decoration="none" x="157" y="87">Le but de se diagrame et de
                </text>
                <text fill="#000000" stroke="none" font-family="Arial" font-size="13px" font-style="normal"
                      font-weight="normal" text-decoration="none" x="157" y="100">présenter le patron état
                </text>
                <text fill="#000000" stroke="none" font-family="Arial" font-size="13px" font-style="normal"
                      font-weight="normal" text-decoration="none" x="157" y="113">implementer sur les shape de
                </text>
                <text fill="#000000" stroke="none" font-family="Arial" font-size="13px" font-style="normal"
                      font-weight="normal" text-decoration="none" x="157" y="126">façon à les éditer lorsque l'on se
                </text>
                <text fill="#000000" stroke="none" font-family="Arial" font-size="13px" font-style="normal"
                      font-weight="normal" text-decoration="none" x="157" y="139">trouve dans le mode aproprier
                </text>
            </g>
        </g>
    </g>
</svg>