<svg version="1.1" xmlns="http://www.w3.org/2000/svg" xmlns:xlink="http://www.w3.org/1999/xlink" width="492"
     height="451">
    <defs/>
    <g>
        <g transform="translate(-78,-118) scale(1,1)">
            <path fill="#C0C0C0" stroke="none"
                  d="M 393 399 L 436.16455078125 399 Q 446.16455078125 399 446.16455078125 409 L 446.16455078125 428 Q 446.16455078125 438 436.16455078125 438 L 393 438 Q 383 438 383 428 L 383 409 Q 383 399 393 399 Z"
                  opacity="0.2"/>
        </g>
        <g transform="translate(-78,-118) scale(1,1)">
            <path fill="#ffffff" stroke="none"
                  d="M 386 392 L 429.16455078125 392 Q 439.16455078125 392 439.16455078125 402 L 439.16455078125 421 Q 439.16455078125 431 429.16455078125 431 L 386 431 Q 376 431 376 421 L 376 402 Q 376 392 386 392 Z"/>
        </g>
        <g transform="translate(-78,-118) scale(1,1)">
            <path fill="none" stroke="#000000"
                  d="M 386 392 L 429.16455078125 392 Q 439.16455078125 392 439.16455078125 402 L 439.16455078125 421 Q 439.16455078125 431 429.16455078125 431 L 386 431 Q 376 431 376 421 L 376 402 Q 376 392 386 392 Z"
                  stroke-miterlimit="10"/>
        </g>
        <g transform="translate(-78,-118) scale(1,1)">
            <g>
                <path fill="none" stroke="none"/>
                <text fill="#000000" stroke="none" font-family="Arial" font-size="13px" font-style="normal"
                      font-weight="bold" text-decoration="none" x="380.5" y="410">Grouped
                </text>
            </g>
        </g>
        <g transform="translate(-78,-118) scale(1,1)">
            <path fill="#C0C0C0" stroke="none"
                  d="M 393 295 L 435.47265625 295 Q 445.47265625 295 445.47265625 305 L 445.47265625 324 Q 445.47265625 334 435.47265625 334 L 393 334 Q 383 334 383 324 L 383 305 Q 383 295 393 295 Z"
                  opacity="0.2"/>
        </g>
        <g transform="translate(-78,-118) scale(1,1)">
            <path fill="#ffffff" stroke="none"
                  d="M 386 288 L 428.47265625 288 Q 438.47265625 288 438.47265625 298 L 438.47265625 317 Q 438.47265625 327 428.47265625 327 L 386 327 Q 376 327 376 317 L 376 298 Q 376 288 386 288 Z"/>
        </g>
        <g transform="translate(-78,-118) scale(1,1)">
            <path fill="none" stroke="#000000"
                  d="M 386 288 L 428.47265625 288 Q 438.47265625 288 438.47265625 298 L 438.47265625 317 Q 438.47265625 327 428.47265625 327 L 386 327 Q 376 327 376 317 L 376 298 Q 376 288 386 288 Z"
                  stroke-miterlimit="10"/>
        </g>
        <g transform="translate(-78,-118) scale(1,1)">
            <g>
                <path fill="none" stroke="none"/>
                <text fill="#000000" stroke="none" font-family="Arial" font-size="13px" font-style="normal"
                      font-weight="bold" text-decoration="none" x="380.5" y="306">Selected
                </text>
            </g>
        </g>
        <g transform="translate(-78,-118) scale(1,1)">
            <path fill="#C0C0C0" stroke="none"
                  d="M 217 295 L 275.36083984375 295 Q 285.36083984375 295 285.36083984375 305 L 285.36083984375 324 Q 285.36083984375 334 275.36083984375 334 L 217 334 Q 207 334 207 324 L 207 305 Q 207 295 217 295 Z"
                  opacity="0.2"/>
        </g>
        <g transform="translate(-78,-118) scale(1,1)">
            <path fill="#ffffff" stroke="none"
                  d="M 210 288 L 268.36083984375 288 Q 278.36083984375 288 278.36083984375 298 L 278.36083984375 317 Q 278.36083984375 327 268.36083984375 327 L 210 327 Q 200 327 200 317 L 200 298 Q 200 288 210 288 Z"/>
        </g>
        <g transform="translate(-78,-118) scale(1,1)">
            <path fill="none" stroke="#000000"
                  d="M 210 288 L 268.36083984375 288 Q 278.36083984375 288 278.36083984375 298 L 278.36083984375 317 Q 278.36083984375 327 268.36083984375 327 L 210 327 Q 200 327 200 317 L 200 298 Q 200 288 210 288 Z"
                  stroke-miterlimit="10"/>
        </g>
        <g transform="translate(-78,-118) scale(1,1)">
            <g>
                <path fill="none" stroke="none"/>
                <text fill="#000000" stroke="none" font-family="Arial" font-size="13px" font-style="normal"
                      font-weight="bold" text-decoration="none" x="204.5" y="306">Unselected
                </text>
            </g>
        </g>
        <g transform="translate(-78,-118) scale(1,1)">
            <path fill="#C0C0C0" stroke="none"
                  d="M 95 312.5 C 95 307.2532944 99.2532944 303 104.5 303 C 109.7467056 303 114 307.2532944 114 312.5 C 114 317.7467056 109.7467056 322 104.5 322 C 99.2532944 322 95 317.7467056 95 312.5 Z"
                  opacity="0.2"/>
        </g>
        <g transform="translate(-78,-118) scale(1,1)">
            <path fill="#000000" stroke="none"
                  d="M 88 305.5 C 88 300.2532944 92.2532944 296 97.5 296 C 102.7467056 296 107 300.2532944 107 305.5 C 107 310.7467056 102.7467056 315 97.5 315 C 92.2532944 315 88 310.7467056 88 305.5 Z"/>
        </g>
        <g transform="translate(-78,-118) scale(1,1)">
            <path fill="none" stroke="#000000" d="M 108 305 L 199 306" stroke-miterlimit="10"/>
        </g>
        <g transform="translate(-78,-118) scale(1,1)">
            <path fill="none" stroke="#000000"
                  d="M 188.7916830567088 310.09759260850973 L 199 306 L 188.88419434488017 301.67906538491434"
                  stroke-miterlimit="10"/>
        </g>
        <g transform="translate(-78,-118) scale(1,1)">
            <path fill="none" stroke="#000000" d="M 279 302 L 326 296 L 375 303" stroke-miterlimit="10"/>
        </g>
        <g transform="translate(-78,-118) scale(1,1)">
            <path fill="none" stroke="#000000"
                  d="M 364.3441494602911 305.7299907097617 L 375 303 L 365.53478088061274 297.39557076751026"
                  stroke-miterlimit="10"/>
        </g>
        <g transform="translate(-78,-118) scale(1,1)">
            <g>
                <path fill="none" stroke="none"/>
                <text fill="#000000" stroke="none" font-family="Arial" font-size="13px" font-style="normal"
                      font-weight="normal" text-decoration="none" x="311.331298828125" y="286">select
                </text>
            </g>
        </g>
        <g transform="translate(-78,-118) scale(1,1)">
            <path fill="none" stroke="#000000" d="M 416 288 L 416 267 L 468 267 L 468 307 L 438 307"
                  stroke-miterlimit="10"/>
        </g>
        <g transform="translate(-78,-118) scale(1,1)">
            <path fill="none" stroke="#000000"
                  d="M 448.16267485762415 302.790482243984 L 438 307 L 448.16267485762415 311.209517756016"
                  stroke-miterlimit="10"/>
        </g>
        <g transform="translate(-78,-118) scale(1,1)">
            <g>
                <path fill="none" stroke="none"/>
                <text fill="#000000" stroke="none" font-family="Arial" font-size="13px" font-style="normal"
                      font-weight="normal" text-decoration="none" x="430.5" y="280.5">move
                </text>
            </g>
        </g>
        <g transform="translate(-78,-118) scale(1,1)">
            <path fill="none" stroke="#000000" d="M 400 288 L 400 240 L 488 240 L 488 320 L 438 320"
                  stroke-miterlimit="10"/>
        </g>
        <g transform="translate(-78,-118) scale(1,1)">
            <path fill="none" stroke="#000000"
                  d="M 448.16267485762415 315.790482243984 L 438 320 L 448.16267485762415 324.209517756016"
                  stroke-miterlimit="10"/>
        </g>
        <g transform="translate(-78,-118) scale(1,1)">
            <g>
                <path fill="none" stroke="none"/>
                <text fill="#000000" stroke="none" font-family="Arial" font-size="13px" font-style="normal"
                      font-weight="normal" text-decoration="none" x="405.5" y="258">editElevation
                </text>
            </g>
        </g>
        <g transform="translate(-78,-118) scale(1,1)">
            <path fill="none" stroke="#000000" d="M 415 328 L 424 352 L 413 391" stroke-miterlimit="10"/>
        </g>
        <g transform="translate(-78,-118) scale(1,1)">
            <path fill="none" stroke="#000000"
                  d="M 411.707312393577 380.0762204914141 L 413 391 L 419.8102103942502 382.36165326083477"
                  stroke-miterlimit="10"/>
        </g>
        <g transform="translate(-78,-118) scale(1,1)">
            <g>
                <path fill="none" stroke="none"/>
                <text fill="#000000" stroke="none" font-family="Arial" font-size="13px" font-style="normal"
                      font-weight="normal" text-decoration="none" x="433.5" y="353.5">group
                </text>
            </g>
        </g>
        <g transform="translate(-78,-118) scale(1,1)">
            <path fill="none" stroke="#000000" d="M 375 312 L 326 320 L 279 313" stroke-miterlimit="10"/>
        </g>
        <g transform="translate(-78,-118) scale(1,1)">
            <path fill="none" stroke="#000000"
                  d="M 289.6719114286966 310.3334842100497 L 279 313 L 288.43169233666845 318.66066954223874"
                  stroke-miterlimit="10"/>
        </g>
        <g transform="translate(-78,-118) scale(1,1)">
            <g>
                <path fill="none" stroke="none"/>
                <text fill="#000000" stroke="none" font-family="Arial" font-size="13px" font-style="normal"
                      font-weight="normal" text-decoration="none" x="298.5" y="339">unselect
                </text>
            </g>
        </g>
        <g transform="translate(-78,-118) scale(1,1)">
            <path fill="none" stroke="#000000" d="M 401 391 L 392 360 L 401 328" stroke-miterlimit="10"/>
        </g>
        <g transform="translate(-78,-118) scale(1,1)">
            <path fill="none" stroke="#000000"
                  d="M 402.3007969580629 338.9228168195706 L 401 328 L 394.1962045072163 336.64340019276995"
                  stroke-miterlimit="10"/>
        </g>
        <g transform="translate(-78,-118) scale(1,1)">
            <g>
                <path fill="none" stroke="none"/>
                <text fill="#000000" stroke="none" font-family="Arial" font-size="13px" font-style="normal"
                      font-weight="normal" text-decoration="none" x="333.5791015625" y="361.5">ungroup
                </text>
            </g>
        </g>
        <g transform="translate(-78,-118) scale(1,1)">
            <path fill="none" stroke="#000000" d="M 407 431 L 407 456 L 468 456 L 468 416 L 439 416"
                  stroke-miterlimit="10"/>
        </g>
        <g transform="translate(-78,-118) scale(1,1)">
            <path fill="none" stroke="#000000"
                  d="M 449.16267485762415 411.790482243984 L 439 416 L 449.16267485762415 420.209517756016"
                  stroke-miterlimit="10"/>
        </g>
        <g transform="translate(-78,-118) scale(1,1)">
            <g>
                <path fill="none" stroke="none"/>
                <text fill="#000000" stroke="none" font-family="Arial" font-size="13px" font-style="normal"
                      font-weight="normal" text-decoration="none" x="430.5" y="449.5">move
                </text>
            </g>
        </g>
        <g transform="translate(-78,-118) scale(1,1)">
            <path fill="none" stroke="#000000" d="M 392 431 L 392 480 L 480 480 L 480 400 L 439 400"
                  stroke-miterlimit="10"/>
        </g>
        <g transform="translate(-78,-118) scale(1,1)">
            <path fill="none" stroke="#000000"
                  d="M 449.16267485762415 395.790482243984 L 439 400 L 449.16267485762415 404.209517756016"
                  stroke-miterlimit="10"/>
        </g>
        <g transform="translate(-78,-118) scale(1,1)">
            <g>
                <path fill="none" stroke="none"/>
                <text fill="#000000" stroke="none" font-family="Arial" font-size="13px" font-style="normal"
                      font-weight="normal" text-decoration="none" x="397.5" y="475">editElevation
                </text>
            </g>
        </g>
        <g transform="translate(-78,-118) scale(1,1)">
            <rect fill="#ffffff" stroke="none" x="88" y="376" width="168" height="76"/>
        </g>
        <g transform="translate(-78,-118) scale(1,1)">
            <path fill="none" stroke="#000000" d="M 88 376 L 256 376 L 256 452 L 88 452 L 88 376 Z Z"
                  stroke-miterlimit="10"/>
        </g>
        <g transform="translate(-78,-118) scale(1,1)">
            <g>
                <path fill="none" stroke="none"/>
                <text fill="#000000" stroke="none" font-family="Arial" font-size="13px" font-style="normal"
                      font-weight="normal" text-decoration="none" x="93" y="391">Le but de se schemas et
                </text>
                <text fill="#000000" stroke="none" font-family="Arial" font-size="13px" font-style="normal"
                      font-weight="normal" text-decoration="none" x="93" y="404">d'acompagner le shéma et
                </text>
                <text fill="#000000" stroke="none" font-family="Arial" font-size="13px" font-style="normal"
                      font-weight="normal" text-decoration="none" x="93" y="417">de présenter la machine à
                </text>
                <text fill="#000000" stroke="none" font-family="Arial" font-size="13px" font-style="normal"
                      font-weight="normal" text-decoration="none" x="93" y="430">état implementer dans le
                </text>
                <text fill="#000000" stroke="none" font-family="Arial" font-size="13px" font-style="normal"
                      font-weight="normal" text-decoration="none" x="93" y="443">patron state d'un shape
                </text>
            </g>
        </g>
        <g transform="translate(-78,-118) scale(1,1)">
            <path fill="#ffffff" stroke="none" d="M 296 496 L 549 496 L 559 506 L 559 558 L 296 558 L 296 496"/>
        </g>
        <g transform="translate(-78,-118) scale(1,1)">
            <path fill="none" stroke="#000000" d="M 296 496 L 549 496 L 559 506 L 559 558 L 296 558 L 296 496 L 296 496"
                  stroke-miterlimit="10"/>
        </g>
        <g transform="translate(-78,-118) scale(1,1)">
            <path fill="none" stroke="#000000" d="M 549 496 L 549 506 L 559 506 L 549 496" stroke-miterlimit="10"/>
        </g>
        <g transform="translate(-78,-118) scale(1,1)">
            <g>
                <path fill="none" stroke="none"/>
                <text fill="#000000" stroke="none" font-family="Arial" font-size="13px" font-style="normal"
                      font-weight="normal" text-decoration="none" x="301" y="511">Lorsque nous somme en mode grouped il
                </text>
                <text fill="#000000" stroke="none" font-family="Arial" font-size="13px" font-style="normal"
                      font-weight="normal" text-decoration="none" x="301" y="524">faut que la selection de la shape soit
                </text>
                <text fill="#000000" stroke="none" font-family="Arial" font-size="13px" font-style="normal"
                      font-weight="normal" text-decoration="none" x="301" y="537">imposible et que seul le groupe puisse
                </text>
                <text fill="#000000" stroke="none" font-family="Arial" font-size="13px" font-style="normal"
                      font-weight="normal" text-decoration="none" x="301" y="550">editer son état via move et
                    editElevation
                </text>
            </g>
        </g>
        <g transform="translate(-78,-118) scale(1,1)">
            <path fill="#ffffff" stroke="none" d="M 168 128 L 301 128 L 311 138 L 311 244 L 168 244 L 168 128"/>
        </g>
        <g transform="translate(-78,-118) scale(1,1)">
            <path fill="none" stroke="#000000" d="M 168 128 L 301 128 L 311 138 L 311 244 L 168 244 L 168 128 L 168 128"
                  stroke-miterlimit="10"/>
        </g>
        <g transform="translate(-78,-118) scale(1,1)">
            <path fill="none" stroke="#000000" d="M 301 128 L 301 138 L 311 138 L 301 128" stroke-miterlimit="10"/>
        </g>
        <g transform="translate(-78,-118) scale(1,1)">
            <g>
                <path fill="none" stroke="none"/>
                <text fill="#000000" stroke="none" font-family="Arial" font-size="13px" font-style="normal"
                      font-weight="normal" text-decoration="none" x="173" y="143">En mode unselected
                </text>
                <text fill="#000000" stroke="none" font-family="Arial" font-size="13px" font-style="normal"
                      font-weight="normal" text-decoration="none" x="173" y="156">aucune action ne doit
                </text>
                <text fill="#000000" stroke="none" font-family="Arial" font-size="13px" font-style="normal"
                      font-weight="normal" text-decoration="none" x="173" y="169">être possible sauf celle
                </text>
                <text fill="#000000" stroke="none" font-family="Arial" font-size="13px" font-style="normal"
                      font-weight="normal" text-decoration="none" x="173" y="182">de selectioner une
                </text>
                <text fill="#000000" stroke="none" font-family="Arial" font-size="13px" font-style="normal"
                      font-weight="normal" text-decoration="none" x="173" y="195">shape.
                </text>
            </g>
        </g>
        <g transform="translate(-78,-118) scale(1,1)">
            <g>
                <path fill="none" stroke="none"/>
                <text fill="#000000" stroke="none" font-family="Arial" font-size="13px" font-style="normal"
                      font-weight="normal" text-decoration="none" x="173" y="210">C'est le mode par
                </text>
                <text fill="#000000" stroke="none" font-family="Arial" font-size="13px" font-style="normal"
                      font-weight="normal" text-decoration="none" x="173" y="223">defaut lors de la
                </text>
                <text fill="#000000" stroke="none" font-family="Arial" font-size="13px" font-style="normal"
                      font-weight="normal" text-decoration="none" x="173" y="236">création de shape
                </text>
            </g>
        </g>
        <g transform="translate(-78,-118) scale(1,1)">
            <path fill="#ffffff" stroke="none" d="M 352 128 L 509 128 L 519 138 L 519 203 L 352 203 L 352 128"/>
        </g>
        <g transform="translate(-78,-118) scale(1,1)">
            <path fill="none" stroke="#000000" d="M 352 128 L 509 128 L 519 138 L 519 203 L 352 203 L 352 128 L 352 128"
                  stroke-miterlimit="10"/>
        </g>
        <g transform="translate(-78,-118) scale(1,1)">
            <path fill="none" stroke="#000000" d="M 509 128 L 509 138 L 519 138 L 509 128" stroke-miterlimit="10"/>
        </g>
        <g transform="translate(-78,-118) scale(1,1)">
            <g>
                <path fill="none" stroke="none"/>
                <text fill="#000000" stroke="none" font-family="Arial" font-size="13px" font-style="normal"
                      font-weight="normal" text-decoration="none" x="357" y="143">Le mode selected et le
                </text>
                <text fill="#000000" stroke="none" font-family="Arial" font-size="13px" font-style="normal"
                      font-weight="normal" text-decoration="none" x="357" y="156">mode d'interaction avec
                </text>
                <text fill="#000000" stroke="none" font-family="Arial" font-size="13px" font-style="normal"
                      font-weight="normal" text-decoration="none" x="357" y="169">l'utilisateur il doit permetre
                </text>
                <text fill="#000000" stroke="none" font-family="Arial" font-size="13px" font-style="normal"
                      font-weight="normal" text-decoration="none" x="357" y="182">l'utilisation de move et de
                </text>
                <text fill="#000000" stroke="none" font-family="Arial" font-size="13px" font-style="normal"
                      font-weight="normal" text-decoration="none" x="357" y="195">editElevation
                </text>
            </g>
        </g>
        <g transform="translate(-78,-118) scale(1,1)">
            <path fill="none" stroke="#000000" d="M 401 205 L 376 232 L 399 287" stroke-miterlimit="10"
                  stroke-dasharray="3"/>
        </g>
        <g transform="translate(-78,-118) scale(1,1)">
            <path fill="none" stroke="#000000" d="M 395 432 L 376 464 L 402 495" stroke-miterlimit="10"
                  stroke-dasharray="3"/>
        </g>
        <g transform="translate(-78,-118) scale(1,1)">
            <path fill="none" stroke="#000000" d="M 240 246 L 239 287" stroke-miterlimit="10" stroke-dasharray="3"/>
        </g>
    </g>
</svg>